<?xml version="1.0" encoding="UTF-8" standalone="no"?>
<svg
   xmlns:dc="http://purl.org/dc/elements/1.1/"
   xmlns:cc="http://creativecommons.org/ns#"
   xmlns:rdf="http://www.w3.org/1999/02/22-rdf-syntax-ns#"
   xmlns:svg="http://www.w3.org/2000/svg"
   xmlns="http://www.w3.org/2000/svg"
   xmlns:sodipodi="http://sodipodi.sourceforge.net/DTD/sodipodi-0.dtd"
   xmlns:inkscape="http://www.inkscape.org/namespaces/inkscape"
   class="logo"
   viewBox="0 0 47 15"
   version="1.1"
   id="svg4"
   sodipodi:docname="logo.svg"
   inkscape:version="0.92.3 (2405546, 2018-03-11)">
  <metadata
     id="metadata10">
    <rdf:RDF>
      <cc:Work
         rdf:about="">
        <dc:format>image/svg+xml</dc:format>
        <dc:type
           rdf:resource="http://purl.org/dc/dcmitype/StillImage" />
      </cc:Work>
    </rdf:RDF>
  </metadata>
  <defs
     id="defs8" />
  <sodipodi:namedview
     pagecolor="#ffffff"
     bordercolor="#666666"
     borderopacity="1"
     objecttolerance="10"
     gridtolerance="10"
     guidetolerance="10"
     inkscape:pageopacity="0"
     inkscape:pageshadow="2"
     inkscape:window-width="640"
     inkscape:window-height="480"
     id="namedview6"
     showgrid="false"
     inkscape:zoom="5.6382979"
     inkscape:cx="19.033419"
     inkscape:cy="19.128362"
     inkscape:window-x="280"
     inkscape:window-y="259"
     inkscape:window-maximized="0"
     inkscape:current-layer="logo" />
  <g
     id="logo"
     transform="translate(-113.000000, -89.000000)">
    <path
       id="Sleek"
       transform="translate(113,89)"
       d="m 12.097656,0.82421875 v 0.0449219 c 0.02627,-0.0205661 0.0603,-0.0371015 0.113282,-0.0449219 z m 0,0.46679685 v 0.058594 c 0.0046,-1.48e-5 0.0091,3.22e-5 0.01367,0 -0.004,-0.016631 -0.0095,-0.041053 -0.01367,-0.058594 z M 3.7773438,1.6699219 c 0.00258,0.031936 0.00556,0.063916 0.00781,0.095703 0.016342,0.010938 0.049564,0.03082 0.064453,0.041016 -0.023648,-0.04604 -0.053288,-0.1021998 -0.070312,-0.1367187 z m 0.048828,2.15625 c 0.018712,0.023832 0.023126,0.03171 0.041016,0.054687 0.00946,-0.018829 0.020486,-0.036661 0.03125,-0.054687 -0.024095,-4.9e-6 -0.048167,3.7e-6 -0.072266,0 z M 3.7148438,4.0878906 c 0.013882,0.093849 0.010976,0.2202756 0.011719,0.359375 0.00975,-0.1252178 0.026919,-0.2456169 0.060547,-0.3554687 -0.025225,-0.00187 -0.046558,-0.00153 -0.072266,-0.00391 z M 43.322266,5.9589844 c -0.0023,0.00296 -0.0035,0.00508 -0.0078,0.00977 0.0074,-0.00403 0.01158,-0.00723 0.01563,-0.00977 -0.0021,-2.42e-5 -0.0057,1.9e-5 -0.0078,0 z M 4.3613281,6.2011719 c 0.00212,0.039216 0.00547,0.07801 0.00781,0.1171875 0.00793,-0.040894 0.00974,-0.072432 0.00977,-0.1054688 -0.00589,-0.00388 -0.011618,-0.00793 -0.017578,-0.011719 z M 7.0195312,7.328125 c -0.038432,-0.021232 -0.093147,-0.00172 -0.1484374,0.019531 0.059204,0.00356 0.1422701,0.00915 0.1679687,0.00781 -0.00708,-0.00761 -0.011197,-0.022739 -0.019531,-0.027344 z M 33.376953,7.375 c -0.01065,0.00973 -0.01496,0.00966 -0.02148,0.015625 -0.0056,0.00513 -0.01008,0.018885 -0.01563,0.025391 0.0027,0.00554 0.0072,0.010058 0.0098,0.015625 0.0018,0.00389 0.0018,0.0099 0.002,0.015625 0.01134,-0.023962 0.02275,-0.047875 0.0332,-0.072266 z m -0.04883,0.0625 c -0.0019,0.00261 -0.002,0.00703 -0.0039,0.00977 0.0065,0.00515 0.0129,0.010586 0.01953,0.015625 10e-4,-0.00209 0.0029,-0.00376 0.0039,-0.00586 6.08e-4,-5.66e-4 -0.01889,-0.017942 -0.01953,-0.019531 z m 0.002,0.052734 c -0.0068,-0.00516 -0.02293,0.0039 -0.0332,0.00391 -0.0075,0.013858 -0.01467,0.024294 -0.02148,0.039063 0.0082,0.00294 0.01915,0.00888 0.0293,0.013672 0.0087,-0.018757 0.01644,-0.03799 0.02539,-0.056641 z m -0.08984,0.1132812 c -0.0246,0.068655 -0.04249,0.1314903 -0.03516,0.1367188 0.0023,0.0043 0.0036,0.00935 0.0059,0.013672 0.01876,-0.035494 0.03479,-0.072448 0.05078,-0.109375 -0.0075,-0.013848 -0.01673,-0.029424 -0.02148,-0.041016 z M 4.3710938,7.9921875 C 4.3651338,8.0033735 4.4143242,8.050832 4.3945312,8 4.3854612,7.99635 4.3724178,7.9896965 4.3710938,7.9921875 Z M 38.339844,8.9179688 c -0.0038,0.00157 -0.0079,0.00237 -0.01172,0.00391 2.4e-4,-2.01e-4 -0.02024,0.016184 -0.01953,0.015625 v 0.00391 c 0.01375,-0.01035 0.01731,-0.012993 0.03125,-0.023437 z M 12.423828,9.3378906 c -0.01127,0.00281 -0.0245,0.00717 -0.03516,0.00977 -0.0018,0.0075 -0.0048,0.014567 -0.0078,0.021484 0.0095,-0.00627 0.03347,-0.024974 0.04297,-0.03125 z m -0.193359,0.046875 c -0.0018,3.523e-4 -0.006,0.00161 -0.0078,0.00195 2.6e-4,0.0077 0.0038,0.00927 0.0039,0.017578 0.0011,-0.00662 0.0028,-0.012913 0.0039,-0.019531 z M 2.7714844,12.117188 c -0.00708,0.0085 -0.015604,0.01771 -0.023437,0.02734 0.00341,1.12e-4 0.00632,-1.45e-4 0.00977,0 0.00447,-0.0087 0.0089,-0.01821 0.013672,-0.02734 z M 1.78125,12.550781 c -0.00787,0.01333 -0.02118,0.02324 -0.027344,0.03516 0.017219,-0.01012 0.024603,-0.01562 0.041016,-0.02539 -0.00542,-0.0037 -0.00839,-0.0062 -0.013672,-0.0098 z m 18.751953,0.853516 c -0.009,0.02026 -0.01821,0.04037 -0.02734,0.06055 0.0085,0.01118 0.01572,0.02338 0.02344,0.03516 0.02426,0.02896 0.02794,0.03 0.05078,0.05664 0.0038,-0.05151 0.005,-0.104929 0.01563,-0.152344 z M 3.4960938,13.613281 c -0.00243,0.102851 -0.00659,0.178124 -0.00977,0.289063 0.00456,-0.0015 0.0091,-0.0024 0.013672,-0.0039 -0.00151,-0.08798 -0.00162,-0.132354 -0.00391,-0.285157 z M 3.5,13.898438 c 3.73e-4,0.0217 0.00163,0.05221 0.00195,0.07031 3.705e-4,-0.02151 -3.238e-4,-0.05238 0,-0.07031 z m -0.013672,0.0039 c -0.00138,4.39e-4 -0.00253,0.0015 -0.00391,0.002 5.203e-4,0.01734 0.00145,0.02763 0.00195,0.04492 5.354e-4,-0.01806 0.00144,-0.02888 0.00195,-0.04687 z m -0.00195,0.04687 c -4.908e-4,0.01656 -0.0015,0.02652 -0.00195,0.04297 0.00135,4.27e-4 0.00255,0.0015 0.00391,0.002 -5.333e-4,-0.01606 -0.00145,-0.02763 -0.00195,-0.04492 z m 42.082031,-0.322266 c -0.01992,-8.87e-4 -0.03894,0.0065 -0.05859,0.0078 0.0085,0.0058 0.01684,0.01181 0.02539,0.01758 0.01221,-0.009 0.02144,-0.01658 0.0332,-0.02539 z m -0.0332,0.02539 c -0.04657,0.03423 -0.08216,0.06066 -0.128906,0.09375 5.91e-4,0.051 -0.0018,0.09946 -0.0039,0.148437 0.0065,0.02069 0.01304,0.03969 0.01953,0.06055 0.0072,0.0037 0.01407,0.0082 0.02148,0.01172 0.07891,-0.02749 0.150476,-0.05162 0.222656,-0.07617 0.01983,-0.01144 0.03663,-0.02578 0.05664,-0.03711 -0.004,-0.01821 -0.008,-0.03639 -0.01172,-0.05469 -0.03176,-0.02471 -0.06215,-0.05097 -0.08594,-0.08594 -0.0301,-0.02013 -0.05985,-0.0403 -0.08984,-0.06055 z m 0.08984,0.06055 c 0.02138,0.0143 0.04116,0.03057 0.0625,0.04492 -0.02153,-0.037 -0.03974,-0.07272 -0.06445,-0.109374 -0.01492,-0.0039 -0.03548,-0.02074 -0.04883,-0.02149 -0.0013,-7.3e-5 -0.0026,6.3e-5 -0.0039,0 0.01679,0.03077 0.03576,0.05811 0.05469,0.08594 z m -26.0625,0.25 c -0.0029,0.0038 -0.0049,0.0079 -0.0078,0.01172 0.0093,0.0021 0.01835,0.005 0.02734,0.0078 -0.0062,-0.0059 -0.01206,-0.01267 -0.01953,-0.01953 z" />
    <path
       id="text3717"
       style="font-style:normal;font-weight:normal;font-size:40px;line-height:1.25;font-family:sans-serif;letter-spacing:0px;word-spacing:0px;fill:#000000;fill-opacity:1;stroke:none;stroke-width:0.20835912"
       d="m 147.80334,92.577996 v 6.998984 h 0.67733 v -6.998984 z m -31.26386,0.1624 c -0.21847,0 -0.45193,0.02454 -0.69984,0.07252 -0.24548,0.04797 -0.50949,0.118477 -0.79178,0.214432 v 0.810424 c 0.27985,-0.113944 0.53606,-0.198298 0.76926,-0.252272 0.2332,-0.05397 0.45107,-0.08041 0.65482,-0.08041 0.3731,0 0.66048,0.09316 0.85931,0.279079 0.2013,0.182911 0.3002,0.44667 0.3002,0.791503 0,0.335838 -0.0969,0.592672 -0.29081,0.772584 -0.19391,0.176915 -0.47293,0.266462 -0.83869,0.266462 h -0.66981 v 0.74578 h 0.6398 c 0.40502,0 0.72166,0.112524 0.9475,0.337415 0.22828,0.221894 0.34147,0.531292 0.34147,0.927099 0,0.428803 -0.12228,0.755824 -0.36774,0.98071 -0.24302,0.224891 -0.59745,0.337413 -1.06384,0.337413 -0.26755,0 -0.52381,-0.03853 -0.76925,-0.113515 -0.24548,-0.07494 -0.47114,-0.185767 -0.67733,-0.332688 v 0.878225 c 0.26019,0.110945 0.51124,0.191992 0.75426,0.245951 0.24546,0.05708 0.4841,0.08673 0.71484,0.08673 0.39369,0 0.73384,-0.06225 1.02443,-0.181323 -0.0121,-0.01832 0.0258,-0.06565 0.006,-0.0017 0.2147,-0.0886 0.40278,-0.208795 0.561,-0.362646 0.37309,-0.362824 0.55912,-0.874596 0.55912,-1.537281 0,-0.431794 -0.10081,-0.795642 -0.30208,-1.089499 -0.19881,-0.293859 -0.47526,-0.487272 -0.83118,-0.580228 0.32154,-0.09895 0.56871,-0.274894 0.743,-0.529771 0.17427,-0.257876 0.26079,-0.572624 0.26079,-0.944444 0,-0.533742 -0.16452,-0.957396 -0.49346,-1.269245 -0.32893,-0.314736 -0.77505,-0.471396 -1.33963,-0.471396 z m 9.76773,0 c -0.61613,0 -1.08823,0.298854 -1.41469,0.895567 -0.32402,0.593714 -0.48596,1.457067 -0.48596,2.590522 0,1.130454 0.16194,1.993808 0.48596,2.59052 0.32646,0.593716 0.79856,0.890834 1.41469,0.890834 0.61611,0 1.08692,-0.297118 1.41094,-0.890834 0.32646,-0.596712 0.4897,-1.460066 0.4897,-2.59052 0,-1.133455 -0.16324,-1.996808 -0.4897,-2.590522 -0.32402,-0.596713 -0.79483,-0.895567 -1.41094,-0.895567 z m -5.05461,0.121407 -1.31524,0.323223 v 0.827769 l 1.32087,-0.323223 v 5.1227 h -1.21394 v 0.764708 h 3.1671 v -0.764708 h -1.2158 v -5.950469 z m 9.60262,0 -1.31524,0.323223 v 0.827769 l 1.32087,-0.323223 v 5.1227 h -1.21393 v 0.764708 h 3.16712 v -0.764708 h -1.21583 v -5.950469 z m 3.38287,0 v 2.495918 h 0.62667 v -2.495918 z m 8.42435,0 v 6.715177 h 1.97379 c 0.61613,0 1.09026,-0.163529 1.42408,-0.490358 0.33384,-0.326841 0.50096,-0.78936 0.50096,-1.389078 0,-0.455776 -0.1021,-0.835521 -0.30583,-1.138376 -0.20128,-0.305853 -0.48419,-0.506346 -0.84994,-0.6023 0.30438,-0.05997 0.53524,-0.212783 0.69233,-0.455667 0.15711,-0.242883 0.23641,-0.568329 0.23641,-0.979132 0,-0.530744 -0.15472,-0.940389 -0.46155,-1.228251 -0.30685,-0.28786 -0.7426,-0.432015 -1.30961,-0.432015 z m -16.35523,0.597569 c 0.38536,0 0.67349,0.231971 0.86495,0.693749 0.19393,0.45878 0.2908,1.149807 0.2908,2.073364 0,0.920557 -0.0969,1.611586 -0.2908,2.073363 -0.19146,0.45878 -0.47959,0.687442 -0.86495,0.687442 -0.38293,0 -0.67104,-0.228662 -0.86496,-0.687442 -0.19145,-0.461777 -0.28706,-1.152806 -0.28706,-2.073363 0,-0.923557 0.0957,-1.614584 0.28706,-2.073364 0.19392,-0.461778 0.48203,-0.693749 0.86496,-0.693749 z m 17.09822,0.14821 h 1.10135 c 0.3633,0 0.6338,0.08435 0.81054,0.252272 0.1792,0.167921 0.2683,0.421134 0.2683,0.759971 0,0.341834 -0.0891,0.596782 -0.2683,0.764701 -0.17674,0.164921 -0.44724,0.247542 -0.81054,0.247542 h -1.10135 z m -5.79385,0.810425 c -0.50566,0 -0.89585,0.128416 -1.17078,0.386292 -0.27492,0.257875 -0.41277,0.623613 -0.41277,1.097384 0,0.389812 0.093,0.697479 0.27956,0.922371 0.18655,0.221893 0.49024,0.387136 0.90997,0.495084 l 0.23454,0.0678 c 0.41973,0.110944 0.69155,0.225354 0.81429,0.345296 0.12518,0.11994 0.18763,0.292265 0.18763,0.517157 0,0.242885 -0.0852,0.432671 -0.25705,0.567616 -0.17183,0.131933 -0.41828,0.197083 -0.73737,0.197083 -0.2381,0 -0.47936,-0.03876 -0.72236,-0.116677 -0.24302,-0.08097 -0.48885,-0.200559 -0.73924,-0.359487 v 0.854568 c 0.26511,0.104957 0.51615,0.182375 0.75426,0.233357 0.24055,0.05403 0.47142,0.08202 0.69233,0.08202 0.53021,0 0.94765,-0.137084 1.24958,-0.409947 0.30437,-0.272854 0.45593,-0.643799 0.45593,-1.111568 0,-0.410811 -0.10209,-0.72917 -0.30582,-0.957061 -0.20129,-0.23089 -0.54333,-0.410141 -1.02445,-0.53608 l -0.23077,-0.06307 c -0.36327,-0.09895 -0.60583,-0.201085 -0.72611,-0.309033 -0.12029,-0.110947 -0.18011,-0.262183 -0.18011,-0.454091 0,-0.251879 0.0827,-0.441673 0.24953,-0.567612 0.16939,-0.125941 0.4236,-0.189204 0.75988,-0.189204 0.22092,0 0.43361,0.02991 0.6398,0.08987 0.20619,0.05997 0.40518,0.149674 0.59665,0.269616 v -0.782056 c -0.18657,-0.08996 -0.39073,-0.156837 -0.61166,-0.201817 -0.22092,-0.04499 -0.45508,-0.0678 -0.70546,-0.0678 z m 13.88047,0 c -0.59157,0 -1.05589,0.233858 -1.39218,0.701633 -0.33384,0.467774 -0.50096,1.114895 -0.50096,1.942496 0,0.824603 0.16712,1.473299 0.50096,1.944074 0.33629,0.467765 0.80061,0.701629 1.39218,0.701629 0.58913,0 1.05212,-0.233864 1.38841,-0.701629 0.33628,-0.470775 0.50472,-1.119471 0.50472,-1.944074 0,-0.827601 -0.16844,-1.474722 -0.50472,-1.942496 -0.33629,-0.467775 -0.79928,-0.701633 -1.38841,-0.701633 z m 4.40355,0 c -0.50567,0 -0.91404,0.23559 -1.22332,0.706363 -0.30928,0.470772 -0.46344,1.095074 -0.46344,1.874698 0,0.776629 0.15416,1.40077 0.46344,1.871543 0.30928,0.470775 0.71765,0.706369 1.22332,0.706369 0.30437,0 0.5658,-0.07378 0.78426,-0.220744 0.21847,-0.146931 0.39669,-0.368521 0.53661,-0.665368 v 0.409935 c 0,0.572729 -0.10931,0.999987 -0.33023,1.281857 -0.22092,0.28486 -0.55386,0.42729 -0.99816,0.42729 -0.20129,0 -0.39896,-0.0316 -0.59289,-0.0946 -0.19392,-0.0629 -0.39032,-0.16133 -0.58913,-0.29327 v 0.80569 c 0.19881,0.0899 0.40428,0.15511 0.6154,0.19709 0.21109,0.0449 0.43546,0.0678 0.67358,0.0678 0.64312,0 1.11981,-0.2093 1.43156,-0.6291 0.31175,-0.41679 0.46906,-1.054948 0.46906,-1.912533 v -4.411619 h -0.67919 v 0.7647 c -0.13992,-0.296857 -0.31814,-0.518438 -0.53661,-0.665367 -0.21846,-0.14693 -0.47989,-0.220739 -0.78426,-0.220739 z m 0.1651,0.692172 c 0.36573,0 0.65053,0.165245 0.85181,0.495085 0.20374,0.329841 0.30396,0.794093 0.30396,1.393804 0,0.596709 -0.10022,1.060815 -0.30396,1.390652 -0.20128,0.329836 -0.48608,0.495084 -0.85181,0.495084 -0.36331,0 -0.64622,-0.165248 -0.84994,-0.495084 -0.20128,-0.329837 -0.30207,-0.793943 -0.30207,-1.390652 0,-0.599711 0.10079,-1.063963 0.30207,-1.393804 0.20372,-0.32984 0.48663,-0.495085 0.84994,-0.495085 z m -4.56865,0.0094 c 0.36084,0 0.64634,0.175789 0.85743,0.52662 0.2111,0.347832 0.31709,0.819166 0.31709,1.415877 0,0.599712 -0.10599,1.074354 -0.31709,1.422191 -0.21109,0.347828 -0.49659,0.521887 -0.85743,0.521887 -0.36574,0 -0.65384,-0.172315 -0.86495,-0.517162 -0.20865,-0.347829 -0.31334,-0.824208 -0.31334,-1.426916 0,-0.602708 0.10599,-1.075773 0.31708,-1.420608 0.21111,-0.347833 0.49792,-0.521889 0.86121,-0.521889 z m -8.08662,1.250325 h 1.19329 c 0.40012,0 0.69599,0.100247 0.88745,0.30115 0.1939,0.197907 0.29083,0.507303 0.29083,0.927107 0,0.416797 -0.0969,0.726356 -0.29083,0.930252 -0.19146,0.200907 -0.48733,0.301148 -0.88745,0.301148 h -1.19329 z"
       inkscape:connector-curvature="0" />
  </g>
</svg>
